<?xml version="1.0" standalone="no" ?>
<!DOCTYPE svg PUBLIC "-//W3C//DTD SVG 1.1//EN" "http://www.w3.org/Graphics/SVG/1.1/DTD/svg11.dtd">
<svg width="340px" height="240px" xmlns="http://www.w3.org/2000/svg" version="1.1" >
	<polyline points="280,160 300,160 320,160 320,180 320,200 320,220 300,220 300,200 320,200 320,180 300,180 280,180 280,160 280,140 260,140 260,120 260,100 280,100 280,120 280,100 300,100 300,120 320,120 300,120 300,100 320,100 320,120 300,120 280,120 300,120 280,120 300,120 300,140 300,120 300,100 300,80 300,100 280,100 280,80 260,80 240,80 220,80 220,100 200,100 180,100 180,120 180,100 180,80 160,80 160,100 160,80 160,60 160,40 160,60 160,40 160,20 140,20 140,40 120,40 120,60 100,60 100,80 100,60 100,80 100,100 100,80 100,100 100,80 80,80 60,80 60,60 60,80 60,100 60,120 60,140 60,160 60,140 60,160 60,180 40,180 40,160 40,180 40,160 40,140 40,120 40,100 60,100 40,100 40,120 40,100 40,120 40,140 20,140 20,160 20,140 40,140 40,160 40,180 40,200 60,200 " fill="transparent" style="fill:none" stroke-width="2" stroke="rgb(0,0,255)" />
	<circle cx="280" cy="160" r="6" fill="rgb(255,0,0)" />
	<circle cx="60" cy="200" r="5" fill="rgb(0,255,0)" />
</svg>
