<?xml version="1.0" standalone="no" ?>
<!DOCTYPE svg PUBLIC "-//W3C//DTD SVG 1.1//EN" "http://www.w3.org/Graphics/SVG/1.1/DTD/svg11.dtd">
<svg width="260px" height="280px" xmlns="http://www.w3.org/2000/svg" version="1.1" >
	<polyline points="180,100 180,100 180,120 180,140 200,140 200,160 200,180 180,180 200,180 200,200 180,200 180,180 200,180 220,180 220,200 220,180 240,180 240,160 220,160 220,140 200,140 180,140 180,120 200,120 180,120 180,100 200,100 180,100 180,80 180,100 160,100 160,120 160,100 180,100 180,80 200,80 180,80 160,80 160,60 160,40 180,40 160,40 160,20 160,40 180,40 160,40 140,40 140,60 120,60 120,80 120,100 100,100 120,100 120,120 120,100 120,80 120,100 120,120 100,120 80,120 80,100 80,120 100,120 100,100 80,100 80,120 80,140 80,160 100,160 100,180 100,200 100,220 100,240 80,240 100,240 80,240 80,260 80,240 100,240 120,240 120,260 100,260 100,240 80,240 80,260 100,260 100,240 100,220 80,220 60,220 40,220 20,220 20,240 40,240 20,240 40,240 20,240 40,240 40,220 40,200 40,180 " fill="transparent" style="fill:none" stroke-width="2" stroke="rgb(0,0,255)" />
	<circle cx="180" cy="100" r="6" fill="rgb(255,0,0)" />
	<circle cx="40" cy="180" r="5" fill="rgb(0,255,0)" />
</svg>
